<svg width="32" height="32" viewBox="0 0 32 32" fill="none" xmlns="http://www.w3.org/2000/svg">
<rect width="32" height="32" fill="#F16D7F"/>
<path d="M16.0013 12.185C13.8861 12.185 12.18 13.8883 12.18 16C12.18 18.1118 13.8861 19.8151 16.0013 19.8151C18.1164 19.8151 19.8225 18.1118 19.8225 16C19.8225 13.8883 18.1164 12.185 16.0013 12.185ZM16.0013 18.4803C14.6344 18.4803 13.517 17.368 13.517 16C13.517 14.6321 14.6311 13.5198 16.0013 13.5198C17.3715 13.5198 18.4856 14.6321 18.4856 16C18.4856 17.368 17.3681 18.4803 16.0013 18.4803V18.4803ZM20.8701 12.029C20.8701 12.5237 20.471 12.9188 19.9788 12.9188C19.4833 12.9188 19.0875 12.5204 19.0875 12.029C19.0875 11.5375 19.4866 11.1391 19.9788 11.1391C20.471 11.1391 20.8701 11.5375 20.8701 12.029ZM23.4009 12.9321C23.3444 11.7401 23.0717 10.6842 22.197 9.81431C21.3257 8.94438 20.2681 8.67212 19.0742 8.61235C17.8437 8.54263 14.1555 8.54263 12.925 8.61235C11.7344 8.6688 10.6768 8.94106 9.80218 9.81099C8.92752 10.6809 8.65814 11.7368 8.59828 12.9288C8.52844 14.1573 8.52844 17.8395 8.59828 19.068C8.65481 20.26 8.92752 21.3159 9.80218 22.1858C10.6768 23.0557 11.7311 23.328 12.925 23.3877C14.1555 23.4575 17.8437 23.4575 19.0742 23.3877C20.2681 23.3313 21.3257 23.059 22.197 22.1858C23.0684 21.3159 23.3411 20.26 23.4009 19.068C23.4708 17.8395 23.4708 14.1606 23.4009 12.9321V12.9321ZM21.8113 20.3862C21.5519 21.037 21.0497 21.5383 20.3945 21.8006C19.4134 22.1891 17.0854 22.0995 16.0013 22.0995C14.9171 22.0995 12.5858 22.1858 11.608 21.8006C10.9562 21.5416 10.454 21.0403 10.1913 20.3862C9.80218 19.4067 9.89197 17.0825 9.89197 16C9.89197 14.9176 9.8055 12.5901 10.1913 11.6139C10.4507 10.9631 10.9529 10.4618 11.608 10.1995C12.5891 9.81099 14.9171 9.90063 16.0013 9.90063C17.0854 9.90063 19.4168 9.81431 20.3945 10.1995C21.0463 10.4584 21.5485 10.9598 21.8113 11.6139C22.2004 12.5934 22.1106 14.9176 22.1106 16C22.1106 17.0825 22.2004 19.41 21.8113 20.3862Z" fill="white"/>
</svg>
