<svg width="32" height="32" viewBox="0 0 32 32" fill="none" xmlns="http://www.w3.org/2000/svg">
<rect width="32" height="32" fill="#F16D7F"/>
<path d="M16.3722 8.20142C13.1875 8.20142 10.04 10.3389 10.04 13.7983C10.04 15.9983 11.2692 17.2483 12.0142 17.2483C12.3215 17.2483 12.4984 16.3858 12.4984 16.142C12.4984 15.8514 11.7627 15.2327 11.7627 14.0233C11.7627 11.5108 13.6624 9.72954 16.1207 9.72954C18.2345 9.72954 19.799 10.9389 19.799 13.1608C19.799 14.8202 19.1378 17.9327 16.9961 17.9327C16.2232 17.9327 15.562 17.3702 15.562 16.5639C15.562 15.3827 16.3815 14.2389 16.3815 13.0202C16.3815 10.9514 13.4668 11.3264 13.4668 13.8264C13.4668 14.3514 13.532 14.9327 13.7648 15.4108C13.3365 17.267 12.4611 20.0327 12.4611 21.9452C12.4611 22.5358 12.545 23.117 12.6008 23.7077C12.7064 23.8264 12.6536 23.8139 12.815 23.7545C14.3794 21.5983 14.3235 21.1764 15.0312 18.3545C15.413 19.0858 16.4001 19.4795 17.1823 19.4795C20.4787 19.4795 21.9593 16.2452 21.9593 13.3295C21.9593 10.2264 19.2961 8.20142 16.3722 8.20142Z" fill="white"/>
</svg>
