<svg width="32" height="32" viewBox="0 0 32 32" fill="none" xmlns="http://www.w3.org/2000/svg">
<path d="M22.3125 12.741C22.3225 12.8831 22.3225 13.0253 22.3225 13.1674C22.3225 17.5024 19.0453 22.4973 13.0554 22.4973C11.21 22.4973 9.49573 21.9593 8.05371 21.0253C8.3159 21.0557 8.56798 21.0659 8.84026 21.0659C10.3629 21.0659 11.7646 20.5481 12.8839 19.6649C11.452 19.6344 10.252 18.6903 9.83856 17.3908C10.0403 17.4212 10.2419 17.4415 10.4537 17.4415C10.7461 17.4415 11.0386 17.4009 11.3108 17.3298C9.81842 17.0253 8.69906 15.7055 8.69906 14.1116V14.071C9.13265 14.3146 9.6369 14.4669 10.1713 14.4872C9.294 13.8983 8.71924 12.8933 8.71924 11.7562C8.71924 11.1471 8.88055 10.5887 9.16292 10.1014C10.7663 12.0913 13.1764 13.3907 15.8788 13.5329C15.8284 13.2892 15.7982 13.0354 15.7982 12.7816C15.7982 10.9745 17.2503 9.50244 19.0553 9.50244C19.9931 9.50244 20.8402 9.89838 21.4351 10.538C22.1712 10.3958 22.8771 10.1217 23.5023 9.7461C23.2603 10.5075 22.746 11.1471 22.0704 11.5532C22.7259 11.4822 23.3612 11.2994 23.946 11.0456C23.5024 11.6953 22.9478 12.274 22.3125 12.741Z" fill="black"/>
</svg>
