<svg width="16" height="16" viewBox="0 0 16 16" fill="none" xmlns="http://www.w3.org/2000/svg">
<path d="M7.99238 10.5002C7.82544 10.5005 7.66366 10.4424 7.53512 10.3359L3.24834 6.76354C3.10243 6.64227 3.01068 6.468 2.99326 6.27908C2.97584 6.09016 3.03418 5.90205 3.15546 5.75615C3.27673 5.61024 3.45099 5.51849 3.63992 5.50107C3.82884 5.48365 4.01694 5.542 4.16285 5.66327L7.99238 8.86407L11.8219 5.77758C11.895 5.71824 11.9791 5.67392 12.0693 5.64717C12.1596 5.62043 12.2543 5.61179 12.3479 5.62175C12.4415 5.63171 12.5322 5.66007 12.6148 5.7052C12.6975 5.75034 12.7703 5.81136 12.8293 5.88475C12.8947 5.95821 12.9443 6.0444 12.9749 6.1379C13.0054 6.23141 13.0164 6.33022 13.007 6.42814C12.9976 6.52607 12.9681 6.621 12.9203 6.70699C12.8725 6.79298 12.8075 6.86818 12.7293 6.92787L8.44249 10.3787C8.31025 10.4684 8.15177 10.5112 7.99238 10.5002V10.5002Z" fill="#6F6E6E"/>
</svg>
