<svg width="32" height="32" viewBox="0 0 32 32" fill="none" xmlns="http://www.w3.org/2000/svg">
<path d="M25.8943 30.5C25.2661 30.4738 24.6731 30.1948 24.2421 29.7227C23.8113 29.2506 23.5771 28.6232 23.5898 27.975C23.6025 27.3269 23.8611 26.7097 24.3101 26.2559C24.7591 25.8022 25.3627 25.548 25.9914 25.548C26.62 25.548 27.2235 25.8022 27.6724 26.2559C28.1214 26.7097 28.38 27.3269 28.3927 27.975C28.4054 28.6232 28.1712 29.2506 27.7404 29.7227C27.3096 30.1948 26.7164 30.4738 26.0882 30.5H25.8943ZM7.0356 27.82C7.0356 27.2899 7.18801 26.7718 7.47358 26.3311C7.75913 25.8903 8.16502 25.5468 8.63989 25.344C9.11475 25.1412 9.63732 25.0881 10.1415 25.1915C10.6455 25.2949 11.1085 25.5502 11.472 25.925C11.8355 26.2998 12.0831 26.7773 12.1834 27.2972C12.2836 27.817 12.232 28.3559 12.0354 28.8456C11.8386 29.3353 11.5055 29.7539 11.0782 30.0483C10.6508 30.3428 10.1484 30.5 9.63441 30.5C9.29298 30.5003 8.95482 30.4311 8.6393 30.2966C8.32377 30.162 8.03707 29.9646 7.79554 29.7158C7.55402 29.4669 7.36246 29.1713 7.23174 28.8461C7.10102 28.5208 7.0337 28.1721 7.0337 27.82H7.0356ZM10.7205 22.186C10.4689 22.1868 10.224 22.1024 10.0235 21.9457C9.82282 21.7891 9.67766 21.5689 9.61017 21.319L4.92362 3.86401H1.63349C1.32951 3.86401 1.03796 3.73948 0.823007 3.51781C0.608054 3.29614 0.487305 2.9955 0.487305 2.68201C0.487305 2.36853 0.608054 2.06788 0.823007 1.84621C1.03796 1.62454 1.32951 1.50001 1.63349 1.50001H5.78477C6.0364 1.4992 6.28129 1.58373 6.48174 1.74058C6.6822 1.89742 6.82703 2.11789 6.89403 2.36801L11.5806 19.823H24.3593L28.6094 9.77501H14.4519C14.2986 9.77961 14.1458 9.75243 14.0028 9.69507C13.8598 9.63772 13.7293 9.55135 13.6193 9.44109C13.5092 9.33083 13.4217 9.19892 13.3619 9.05316C13.3022 8.9074 13.2714 8.75076 13.2714 8.59251C13.2714 8.43426 13.3022 8.27762 13.3619 8.13186C13.4217 7.98611 13.5092 7.85419 13.6193 7.74393C13.7293 7.63367 13.8598 7.54731 14.0028 7.48995C14.1458 7.43259 14.2986 7.40541 14.4519 7.41001H30.3675C30.5573 7.40997 30.744 7.45867 30.9109 7.55173C31.0779 7.64479 31.2197 7.77926 31.3236 7.94301C31.4282 8.1073 31.4918 8.2957 31.5087 8.49146C31.5256 8.68721 31.4955 8.88424 31.4207 9.06501L26.1794 21.477C26.0899 21.6876 25.9428 21.8668 25.7561 21.9927C25.5694 22.1186 25.3514 22.1858 25.1283 22.186H10.7205Z" fill="white"/>
</svg>
