<svg width="33" height="32" viewBox="0 0 33 32" fill="none" xmlns="http://www.w3.org/2000/svg">
<path d="M27.199 30.5C26.5512 30.4738 25.9396 30.1948 25.4952 29.7227C25.0509 29.2506 24.8094 28.6232 24.8225 27.975C24.8356 27.3269 25.1023 26.7097 25.5653 26.2559C26.0283 25.8022 26.6508 25.548 27.2991 25.548C27.9474 25.548 28.5697 25.8022 29.0327 26.2559C29.4957 26.7097 29.7624 27.3269 29.7755 27.975C29.7886 28.6232 29.5471 29.2506 29.1028 29.7227C28.6585 30.1948 28.0468 30.4738 27.399 30.5H27.199ZM7.75098 27.82C7.75098 27.2899 7.90815 26.7718 8.20264 26.3311C8.49712 25.8903 8.91569 25.5468 9.4054 25.344C9.8951 25.1412 10.434 25.0881 10.9539 25.1915C11.4737 25.2949 11.9512 25.5502 12.326 25.925C12.7009 26.2998 12.9562 26.7773 13.0596 27.2972C13.163 27.817 13.1098 28.3559 12.907 28.8456C12.7041 29.3353 12.3606 29.7539 11.9199 30.0483C11.4792 30.3428 10.9611 30.5 10.431 30.5C10.0789 30.5003 9.73017 30.4311 9.40479 30.2966C9.0794 30.162 8.78374 29.9646 8.53467 29.7158C8.2856 29.4669 8.08805 29.1713 7.95325 28.8461C7.81844 28.5208 7.74902 28.1721 7.74902 27.82H7.75098ZM11.551 22.186C11.2916 22.1868 11.039 22.1024 10.8322 21.9457C10.6253 21.7891 10.4756 21.5689 10.406 21.319L5.573 3.864H2.18005C1.86657 3.864 1.56591 3.73947 1.34424 3.5178C1.12257 3.29613 0.998047 2.99549 0.998047 2.682C0.998047 2.36852 1.12257 2.06787 1.34424 1.8462C1.56591 1.62453 1.86657 1.5 2.18005 1.5H6.46106C6.72055 1.49919 6.97309 1.58372 7.17981 1.74057C7.38653 1.89741 7.53589 2.11788 7.60498 2.368L12.438 19.823H25.616L29.999 9.775H15.399C15.2409 9.7796 15.0834 9.75242 14.9359 9.69506C14.7884 9.63771 14.6539 9.55134 14.5404 9.44108C14.4269 9.33082 14.3366 9.19891 14.275 9.05315C14.2134 8.90739 14.1816 8.75075 14.1816 8.5925C14.1816 8.43425 14.2134 8.27761 14.275 8.13185C14.3366 7.9861 14.4269 7.85418 14.5404 7.74392C14.6539 7.63366 14.7884 7.5473 14.9359 7.48994C15.0834 7.43258 15.2409 7.4054 15.399 7.41H31.812C32.0077 7.40996 32.2003 7.45866 32.3724 7.55172C32.5446 7.64478 32.6908 7.77925 32.798 7.943C32.9058 8.10729 32.9714 8.29569 32.9889 8.49145C33.0063 8.6872 32.9752 8.88423 32.8981 9.065L27.493 21.477C27.4007 21.6876 27.249 21.8668 27.0565 21.9927C26.864 22.1186 26.6391 22.1858 26.4091 22.186H11.551Z" fill="white"/>
</svg>
