<svg width="26" height="26" viewBox="0 0 26 26" fill="none" xmlns="http://www.w3.org/2000/svg">
<path d="M21.3213 22.9865C21.3663 22.9751 21.3876 22.9541 21.4053 22.9331C21.4131 22.924 21.4209 22.9148 21.4288 22.9058C21.4653 22.864 21.4686 22.7755 21.4677 22.7307C21.4545 22.6246 21.3638 22.5518 21.2865 22.5518C21.2828 22.5518 21.2789 22.5519 21.2766 22.552C21.1984 22.5574 21.1107 22.6611 21.1172 22.7827C21.1266 22.8995 21.2128 22.9865 21.2845 22.9865H21.3213ZM7.66486 22.9801C7.76404 22.9801 7.84467 22.8857 7.84467 22.7698C7.84467 22.6543 7.76404 22.5603 7.66486 22.5603C7.56573 22.5603 7.48505 22.6543 7.48505 22.7698C7.48505 22.8857 7.56573 22.9801 7.66486 22.9801ZM21.4448 24.9865C21.397 24.9865 21.3331 24.9865 21.2845 24.9865C20.147 24.9865 19.202 24.0747 19.1218 22.9182C19.0417 21.7131 19.939 20.6385 21.1406 20.5566C21.1895 20.5533 21.2382 20.5518 21.2865 20.5518C22.4252 20.5518 23.3867 21.4526 23.4644 22.6086C23.4958 23.2117 23.3195 23.7814 22.9351 24.2214C22.5508 24.6777 22.0217 24.9379 21.4448 24.9865ZM7.66486 24.9801C6.46063 24.9801 5.48505 23.9911 5.48505 22.7698C5.48505 21.5493 6.46063 20.5603 7.66486 20.5603C8.86902 20.5603 9.84467 21.5493 9.84467 22.7698C9.84467 23.9911 8.86902 24.9801 7.66486 24.9801ZM20.6437 18.114H8.57837C8.14545 18.114 7.76117 17.8207 7.64862 17.3977L3.72284 2.9679H0.967041C0.438721 2.9679 0.00585938 2.52881 0.00585938 1.9906C0.00585938 1.45325 0.438721 1.01318 0.967041 1.01318H4.44464C4.87665 1.01318 5.26093 1.30652 5.37341 1.73047L9.29926 16.1593H20.0029L23.5598 7.854H11.7031C11.174 7.854 10.741 7.41394 10.741 6.87671C10.741 6.33936 11.174 5.89929 11.7031 5.89929H25.0339C25.3544 5.89929 25.6594 6.06213 25.835 6.33936C26.0114 6.6156 26.0438 6.95764 25.915 7.26721L21.5248 17.5272C21.3646 17.8855 21.028 18.114 20.6437 18.114Z" fill="white"/>
</svg>
