<svg width="16" height="16" viewBox="0 0 16 16" fill="none" xmlns="http://www.w3.org/2000/svg">
<path d="M1.33333 13H4.66667C5.125 13 5.5 12.625 5.5 12.1667C5.5 11.7083 5.125 11.3333 4.66667 11.3333H1.33333C0.875 11.3333 0.5 11.7083 0.5 12.1667C0.5 12.625 0.875 13 1.33333 13ZM0.5 3.83333C0.5 4.29167 0.875 4.66667 1.33333 4.66667H14.6667C15.125 4.66667 15.5 4.29167 15.5 3.83333C15.5 3.375 15.125 3 14.6667 3H1.33333C0.875 3 0.5 3.375 0.5 3.83333ZM1.33333 8.83333H9.66667C10.125 8.83333 10.5 8.45833 10.5 8C10.5 7.54167 10.125 7.16667 9.66667 7.16667H1.33333C0.875 7.16667 0.5 7.54167 0.5 8C0.5 8.45833 0.875 8.83333 1.33333 8.83333Z" fill="#EF5B70"/>
</svg>
