<svg width="48" height="40" viewBox="0 0 48 40" fill="none" xmlns="http://www.w3.org/2000/svg">
<path d="M24.001 37.062L20.53 39.9619L18.242 36.042L14.002 37.554L13.18 33.074L8.68698 33.0291L9.41898 28.5291L5.21097 26.929L7.42099 22.9631L4.00699 19.998L7.41898 17.031L5.20901 13.0659L9.418 11.4661L8.68497 6.97095L13.179 6.927L14.001 2.44702L18.241 3.95801L20.529 0.0380859L24 2.93799L27.471 0.0380859L29.76 3.95898L34 2.44702L34.821 6.92798L39.315 6.9729L38.583 11.468L42.791 13.0681L40.581 17.0339L43.993 19.999L40.581 22.9661L42.79 26.9321L38.581 28.532L39.314 33.0261L34.819 33.071L33.998 37.552L29.76 36.041L27.471 39.9609L24.001 37.062ZM25.207 35.5791L26.968 37.05L28.129 35.0601L28.921 33.7041L30.389 34.2271L32.54 34.9951L32.957 32.7219L33.242 31.167L34.803 31.1511L37.085 31.1301L36.713 28.8479L36.459 27.2881L37.918 26.7341L40.052 25.9209L38.932 23.9111L38.166 22.5361L39.349 21.509L41.083 19.999L39.35 18.499L38.167 17.47L38.933 16.094L40.054 14.083L37.92 13.272L36.461 12.719L36.716 11.1589L37.088 8.87793L34.806 8.85498L33.246 8.83911L32.961 7.28491L32.545 5.01196L30.393 5.77905L28.925 6.302L28.132 4.94507L26.97 2.95508L25.208 4.42603L24.003 5.43091L22.798 4.42603L21.037 2.95508L19.876 4.94409L19.084 6.30103L17.615 5.77808L15.465 5.01001L15.047 7.28394L14.762 8.83813L13.202 8.854L10.921 8.87598L11.293 11.158L11.547 12.7161L10.088 13.271L7.95297 14.082L9.07401 16.093L9.84 17.468L8.65701 18.4971L6.923 20.0051L8.65598 21.512L9.83896 22.541L9.07297 23.916L7.952 25.926L10.085 26.7361L11.545 27.291L11.29 28.8501L10.919 31.134L13.2 31.157L14.76 31.1731L15.045 32.728L15.462 35L17.614 34.2329L19.083 33.71L19.875 35.0669L21.037 37.0571L22.798 35.5859L24.003 34.5811L25.207 35.5791ZM25.325 23.0581C25.325 20.1311 26.89 18.5029 28.784 18.5029C30.79 18.5029 32.084 20.066 32.084 22.833C32.084 25.892 30.499 27.4099 28.669 27.4099C26.89 27.4099 25.345 25.9601 25.325 23.0581ZM26.846 22.97C26.823 24.821 27.528 26.228 28.718 26.228C29.995 26.228 30.568 24.843 30.568 22.928C30.568 21.163 30.061 19.6909 28.718 19.6909C27.507 19.6869 26.846 21.141 26.846 22.969V22.97ZM19.201 27.3701L27.616 12.6511H28.849L20.434 27.3701H19.201ZM15.986 17.0281C15.986 14.1281 17.549 12.4961 19.444 12.4961C21.444 12.4961 22.77 14.0601 22.77 16.8281C22.77 19.8861 21.184 21.4031 19.334 21.4031C17.551 21.4031 16.007 19.9531 15.986 17.0291V17.0281ZM17.528 16.9619C17.484 18.8129 18.169 20.2189 19.378 20.2209C20.655 20.2209 21.228 18.8369 21.228 16.9209C21.228 15.1549 20.721 13.6831 19.378 13.6831C18.169 13.6801 17.528 15.1301 17.528 16.9631V16.9619Z" fill="#F16D7F"/>
</svg>
