<svg width="48" height="40" viewBox="0 0 48 40" fill="none" xmlns="http://www.w3.org/2000/svg">
<path d="M42.8628 11.0723C41.6464 11.06 40.4747 11.5301 39.604 12.3796C38.7333 13.2292 38.2345 14.3889 38.2168 15.6052C38.2199 16.2452 38.3609 16.8771 38.6301 17.4578C38.8993 18.0384 39.2904 18.5543 39.7769 18.9702L33.9169 21.0254L25.5779 11.3423C26.4732 11.0435 27.2529 10.4731 27.8086 9.71021C28.3643 8.94733 28.6681 8.02993 28.6779 7.08618C28.6526 5.87094 28.1522 4.71405 27.2838 3.86353C26.4155 3.013 25.2483 2.53662 24.0328 2.53662C22.8173 2.53662 21.6502 3.013 20.7819 3.86353C19.9135 4.71405 19.413 5.87094 19.3878 7.08618C19.3975 8.02058 19.6951 8.92936 20.24 9.68848C20.7849 10.4476 21.5507 11.0203 22.4329 11.3284L14.0808 21.0283L8.2229 18.9734C8.70897 18.5572 9.09969 18.0411 9.36853 17.4604C9.63737 16.8798 9.77802 16.2483 9.78088 15.6084C9.80392 14.7316 9.57832 13.8663 9.13025 13.1123C8.68218 12.3583 8.02989 11.7465 7.24878 11.3477C6.46767 10.9488 5.58966 10.779 4.71619 10.8582C3.84271 10.9373 3.00945 11.2622 2.31274 11.7949C1.61604 12.3277 1.08432 13.0467 0.779053 13.8689C0.473781 14.6911 0.407421 15.5828 0.587647 16.4412C0.767873 17.2995 1.18729 18.0892 1.79749 18.7192C2.40768 19.3492 3.18374 19.7937 4.03589 20.0012V32.2922C4.04325 32.3742 4.05995 32.4551 4.08582 32.5332C4.05288 32.6599 4.03616 32.7905 4.03589 32.9214C4.03589 37.3334 21.9548 37.4634 23.9978 37.4634C26.0408 37.4634 43.9598 37.3344 43.9598 32.9214C43.9591 32.7905 43.9423 32.66 43.9098 32.5332C43.9374 32.4555 43.9543 32.3745 43.9598 32.2922V20.0012C45.0587 19.761 46.0285 19.1194 46.6792 18.2019C47.3299 17.2844 47.6147 16.157 47.478 15.0405C47.3413 13.924 46.7928 12.8987 45.9399 12.1653C45.0871 11.4319 43.9912 11.0432 42.8668 11.0752L42.8628 11.0723ZM21.6438 7.08838C21.6323 6.61417 21.7624 6.14724 22.0175 5.74731C22.2725 5.34738 22.641 5.03253 23.0758 4.84302C23.5106 4.6535 23.9921 4.59794 24.4587 4.68335C24.9253 4.76876 25.3559 4.99125 25.6954 5.32251C26.035 5.65377 26.268 6.07862 26.3649 6.54297C26.4617 7.00732 26.418 7.49007 26.2393 7.92944C26.0605 8.36882 25.7549 8.74493 25.3613 9.00977C24.9678 9.2746 24.5043 9.41612 24.0299 9.41626C23.4052 9.42267 22.8033 9.18143 22.3561 8.74512C21.9089 8.3088 21.6528 7.71309 21.6438 7.08838ZM14.0538 23.3643C14.2708 23.4392 14.5051 23.4479 14.7271 23.3892C14.949 23.3304 15.1484 23.2067 15.2998 23.0342L23.9999 12.9343L32.6998 23.0342C32.851 23.2068 33.0502 23.3305 33.272 23.3894C33.4937 23.4484 33.7279 23.44 33.9448 23.3652L41.7029 20.6404V30.5774C36.8179 28.4554 25.5938 28.3772 24.0028 28.3772C22.4118 28.3772 11.1839 28.4564 6.30286 30.5774V20.6404L14.0538 23.3643ZM23.9968 35.2532C15.2968 35.2532 9.74782 34.2424 7.43982 33.3914C7.08875 33.2739 6.75302 33.1146 6.43982 32.9172C7.16182 32.3962 9.50088 31.6853 13.4059 31.1853C20.4413 30.3806 27.5454 30.3806 34.5808 31.1853C38.4808 31.6853 40.8259 32.3962 41.5459 32.9172C41.2352 33.116 40.901 33.2754 40.5509 33.3914C38.2489 34.2404 32.7048 35.2532 23.9968 35.2532ZM2.74988 15.6052C2.73875 15.1311 2.86919 14.6646 3.12451 14.2649C3.37983 13.8652 3.74846 13.5505 4.18335 13.3613C4.61824 13.1721 5.09957 13.1167 5.56604 13.2024C6.03251 13.288 6.46293 13.5109 6.80225 13.8423C7.14156 14.1736 7.37437 14.5984 7.47107 15.0627C7.56776 15.527 7.52392 16.0097 7.34509 16.449C7.16627 16.8882 6.86054 17.2643 6.46704 17.5291C6.07354 17.7938 5.61013 17.9352 5.13586 17.9353C4.5107 17.942 3.90836 17.7005 3.46106 17.2637C3.01376 16.8269 2.75805 16.2304 2.74988 15.6052ZM42.8628 17.9353C42.4048 17.9241 41.9604 17.778 41.585 17.5154C41.2096 17.2528 40.9199 16.8854 40.7523 16.459C40.5847 16.0326 40.5466 15.5663 40.6427 15.1184C40.7388 14.6705 40.965 14.2608 41.2927 13.9407C41.6205 13.6206 42.0354 13.4043 42.4855 13.3188C42.9356 13.2334 43.4008 13.2825 43.8231 13.4602C44.2454 13.6379 44.6059 13.9363 44.8595 14.3179C45.1131 14.6994 45.2486 15.1471 45.2489 15.6052C45.2402 16.2301 44.9842 16.8262 44.537 17.2627C44.0898 17.6992 43.4877 17.9407 42.8628 17.9343V17.9353Z" fill="#F16D7F"/>
</svg>
