<svg width="48" height="40" viewBox="0 0 48 40" fill="none" xmlns="http://www.w3.org/2000/svg">
<path d="M31.7635 31.2756H16.2865C16.0793 32.5836 15.4122 33.7747 14.4052 34.6348C13.3982 35.4948 12.1173 35.9673 10.793 35.9673C9.4687 35.9673 8.18784 35.4948 7.18082 34.6348C6.1738 33.7747 5.5067 32.5836 5.2995 31.2756H3.36249C2.86767 31.2725 2.39432 31.0731 2.04621 30.7214C1.69809 30.3698 1.50363 29.8945 1.5055 29.3997V5.90967C1.50337 5.41467 1.6977 4.93905 2.04584 4.58716C2.39398 4.23527 2.86749 4.03589 3.36249 4.03271H28.9135C29.4084 4.03589 29.8818 4.23524 30.2298 4.58716C30.5778 4.93908 30.7719 5.41476 30.7695 5.90967V7.8147H37.8905C37.9709 7.81436 38.0509 7.82479 38.1285 7.8457C40.4285 8.0457 41.5855 9.24562 42.8055 11.3076L46.3645 17.4016C46.4494 17.5463 46.4942 17.7109 46.4945 17.8787V30.3367C46.4956 30.5842 46.3983 30.8219 46.2241 30.9978C46.0499 31.1737 45.813 31.2733 45.5655 31.2747H42.7515C42.5443 32.5827 41.8772 33.7737 40.8702 34.6338C39.8632 35.4938 38.5823 35.9663 37.258 35.9663C35.9337 35.9663 34.6528 35.4938 33.6458 34.6338C32.6388 33.7737 31.9717 32.5827 31.7645 31.2747L31.7635 31.2756ZM33.5415 30.3367C33.5494 31.0696 33.7739 31.7838 34.1869 32.3894C34.5998 32.995 35.1827 33.4649 35.8621 33.74C36.5415 34.0151 37.2871 34.0831 38.0051 33.9353C38.7231 33.7876 39.3813 33.4307 39.8969 32.9097C40.4125 32.3887 40.7624 31.7268 40.9027 31.0073C41.0429 30.2879 40.9672 29.543 40.685 28.8665C40.4028 28.1899 39.9269 27.6122 39.317 27.2056C38.7071 26.799 37.9905 26.5818 37.2575 26.5815C36.2672 26.5879 35.3197 26.987 34.6231 27.6909C33.9265 28.3949 33.5375 29.3463 33.5415 30.3367ZM7.07752 30.3367C7.08541 31.0696 7.30994 31.7838 7.72287 32.3894C8.13581 32.995 8.71868 33.4649 9.3981 33.74C10.0775 34.0151 10.8232 34.0831 11.5411 33.9353C12.2591 33.7876 12.9173 33.4307 13.4329 32.9097C13.9485 32.3887 14.2984 31.7268 14.4387 31.0073C14.5789 30.2879 14.5032 29.543 14.221 28.8665C13.9388 28.1899 13.4629 27.6122 12.853 27.2056C12.2431 26.799 11.5265 26.5818 10.7935 26.5815C9.80297 26.5876 8.85533 26.9865 8.15848 27.6904C7.46163 28.3944 7.07252 29.3461 7.07651 30.3367H7.07752ZM42.7495 29.3987H44.6355V23.7805H41.8995C41.7769 23.78 41.6556 23.7554 41.5425 23.708C41.4295 23.6606 41.3269 23.5913 41.2406 23.5042C41.1543 23.417 41.0861 23.3137 41.0397 23.2002C40.9934 23.0867 40.9698 22.9651 40.9705 22.8425V20.9956C40.9702 20.275 41.2457 19.5816 41.7405 19.0576H35.3615C35.2843 19.0575 35.2073 19.0477 35.1325 19.0286C34.4278 18.9657 33.7723 18.6408 33.2956 18.1179C32.819 17.595 32.556 16.9121 32.5585 16.2046V11.5046C32.5578 11.382 32.5814 11.2603 32.6277 11.1467C32.674 11.0332 32.7423 10.93 32.8285 10.8428C32.9148 10.7556 33.0174 10.6862 33.1305 10.6387C33.2435 10.5911 33.3648 10.5663 33.4875 10.5657H39.9705C39.6262 10.247 39.2188 10.0039 38.7748 9.85254C38.3307 9.70113 37.8598 9.64458 37.3925 9.68652H30.7695V29.3945H31.7635C31.9707 28.0865 32.6378 26.8955 33.6448 26.0354C34.6519 25.1753 35.9327 24.7029 37.257 24.7029C38.5813 24.7029 39.8622 25.1753 40.8692 26.0354C41.8762 26.8955 42.5433 28.0865 42.7505 29.3945L42.7495 29.3987ZM16.2855 29.3987H28.9125V5.90869H3.36249V29.3987H5.2995C5.5067 28.0907 6.1738 26.8994 7.18082 26.0393C8.18784 25.1793 9.4687 24.7068 10.793 24.7068C12.1173 24.7068 13.3982 25.1793 14.4052 26.0393C15.4122 26.8994 16.0793 28.0907 16.2865 29.3987H16.2855ZM42.8275 20.9985V21.9077H44.6355V20.0605H43.7565C43.5097 20.0621 43.2735 20.1615 43.0996 20.3367C42.9257 20.5119 42.8282 20.7488 42.8285 20.9956L42.8275 20.9985ZM34.4145 16.2065C34.4134 16.459 34.5125 16.7018 34.69 16.8813C34.8675 17.0609 35.109 17.1627 35.3615 17.1646C35.4254 17.1644 35.4891 17.1711 35.5515 17.1846H44.0765L41.3105 12.4487H34.4105L34.4145 16.2065ZM34.5075 30.3386C34.5046 29.6061 34.7924 28.9022 35.3077 28.3816C35.8231 27.861 36.524 27.566 37.2565 27.5615C37.5053 27.5615 37.7439 27.6605 37.9198 27.8364C38.0957 28.0123 38.1945 28.2507 38.1945 28.4995C38.1945 28.7483 38.0957 28.9869 37.9198 29.1628C37.7439 29.3388 37.5053 29.4375 37.2565 29.4375C37.0782 29.4359 36.9034 29.4875 36.7543 29.5854C36.6053 29.6834 36.4887 29.8232 36.4193 29.9875C36.35 30.1519 36.331 30.3332 36.3648 30.5083C36.3987 30.6834 36.4837 30.8445 36.6093 30.9712C36.7348 31.0979 36.8952 31.1843 37.07 31.2197C37.2447 31.2551 37.4261 31.2378 37.591 31.1699C37.756 31.102 37.897 30.9866 37.9963 30.8384C38.0955 30.6902 38.1485 30.516 38.1485 30.3376C38.1485 30.0914 38.2463 29.8553 38.4204 29.6812C38.5946 29.507 38.8307 29.4092 39.077 29.4092C39.3233 29.4092 39.5594 29.507 39.7336 29.6812C39.9077 29.8553 40.0055 30.0914 40.0055 30.3376C40.0055 31.067 39.7158 31.7665 39.2 32.2822C38.6843 32.798 37.9848 33.0876 37.2555 33.0876C36.5262 33.0876 35.8267 32.798 35.3109 32.2822C34.7952 31.7665 34.5055 31.067 34.5055 30.3376L34.5075 30.3386ZM8.04349 30.3386C8.04056 29.6061 8.32838 28.9022 8.84375 28.3816C9.35912 27.861 10.06 27.566 10.7925 27.5615C11.0413 27.5615 11.2799 27.6605 11.4558 27.8364C11.6317 28.0123 11.7305 28.2507 11.7305 28.4995C11.7305 28.7483 11.6317 28.9869 11.4558 29.1628C11.2799 29.3388 11.0413 29.4375 10.7925 29.4375C10.6142 29.4359 10.4394 29.4875 10.2903 29.5854C10.1413 29.6834 10.0247 29.8232 9.95532 29.9875C9.88598 30.1519 9.867 30.3332 9.90082 30.5083C9.93464 30.6834 10.0197 30.8445 10.1453 30.9712C10.2708 31.0979 10.4312 31.1843 10.606 31.2197C10.7808 31.2551 10.9621 31.2378 11.127 31.1699C11.292 31.102 11.433 30.9866 11.5323 30.8384C11.6315 30.6902 11.6845 30.516 11.6845 30.3376C11.6845 30.0914 11.7823 29.8553 11.9565 29.6812C12.1306 29.507 12.3668 29.4092 12.613 29.4092C12.8593 29.4092 13.0954 29.507 13.2696 29.6812C13.4437 29.8553 13.5415 30.0914 13.5415 30.3376C13.5415 31.067 13.2518 31.7665 12.7361 32.2822C12.2203 32.798 11.5209 33.0876 10.7915 33.0876C10.0622 33.0876 9.36268 32.798 8.84696 32.2822C8.33123 31.7665 8.04151 31.067 8.04151 30.3376L8.04349 30.3386ZM6.18552 9.69263C5.93675 9.69263 5.69816 9.59388 5.52225 9.41797C5.34634 9.24206 5.2475 9.00341 5.2475 8.75464C5.2475 8.50587 5.34634 8.26722 5.52225 8.09131C5.69816 7.9154 5.93675 7.81665 6.18552 7.81665H26.0855C26.3343 7.81665 26.5729 7.9154 26.7488 8.09131C26.9247 8.26722 27.0235 8.50587 27.0235 8.75464C27.0235 9.00341 26.9247 9.24206 26.7488 9.41797C26.5729 9.59388 26.3343 9.69263 26.0855 9.69263H6.18552Z" fill="#F16D7F"/>
</svg>
