<svg width="32" height="32" viewBox="0 0 32 32" fill="none" xmlns="http://www.w3.org/2000/svg">
<path d="M21.0585 20.019C22.6702 18.2589 23.6271 15.9978 23.7687 13.6155C23.9102 11.2333 23.2277 8.87481 21.8358 6.93625C20.4439 4.9977 18.4274 3.59712 16.1249 2.9697C13.8223 2.34228 11.374 2.52624 9.19107 3.49068C7.00813 4.45513 5.22353 6.14132 4.13694 8.2661C3.05035 10.3909 2.72796 12.8248 3.2239 15.1592C3.71984 17.4936 5.00391 19.5863 6.86048 21.0858C8.71705 22.5853 11.033 23.4003 13.4195 23.394C15.6719 23.3971 17.8634 22.6631 19.6595 21.304L27.4075 29.111C27.493 29.2 27.5954 29.2711 27.7088 29.3201C27.8221 29.369 27.9441 29.3948 28.0675 29.396C28.1912 29.3964 28.3137 29.3713 28.4272 29.3222C28.5408 29.2732 28.643 29.2013 28.7275 29.111C28.9014 28.9301 28.9986 28.6889 28.9986 28.438C28.9986 28.187 28.9014 27.9459 28.7275 27.765L21.0585 20.019ZM4.88553 12.894C4.89836 11.2087 5.40984 9.56494 6.35549 8.16993C7.30114 6.77491 8.63863 5.69108 10.1993 5.05507C11.7601 4.41907 13.4741 4.25935 15.1255 4.59606C16.7768 4.93277 18.2915 5.75083 19.4786 6.94712C20.6657 8.14341 21.4721 9.66437 21.7961 11.3183C22.1201 12.9722 21.9472 14.6849 21.2991 16.2407C20.6511 17.7965 19.557 19.1256 18.1548 20.0605C16.7525 20.9953 15.1049 21.4941 13.4195 21.494C11.1481 21.4831 8.97372 20.5715 7.37374 18.9591C5.77376 17.3468 4.87888 15.1655 4.88553 12.894V12.894Z" fill="white"/>
</svg>
