<svg width="32" height="32" viewBox="0 0 32 32" fill="none" xmlns="http://www.w3.org/2000/svg">
<path d="M15.9978 21.437C20.4978 21.437 24.1538 16.964 24.1538 11.468C24.1538 5.972 20.4978 1.5 15.9978 1.5C14.8609 1.52174 13.7441 1.8034 12.7329 2.3234C11.7217 2.84339 10.8428 3.58794 10.1638 4.5C8.62441 6.49573 7.80597 8.95381 7.84177 11.474C7.84177 16.965 11.4978 21.437 15.9978 21.437ZM15.9978 3.313C19.4978 3.313 22.3418 6.972 22.3418 11.469C22.3418 15.966 19.4958 19.625 15.9978 19.625C12.4998 19.625 9.65381 15.965 9.65281 11.469C9.65181 6.973 12.4978 3.313 15.9978 3.313ZM22.3418 19.625C22.1014 19.625 21.8708 19.7205 21.7008 19.8905C21.5308 20.0605 21.4353 20.2911 21.4353 20.5315C21.4353 20.7719 21.5308 21.0025 21.7008 21.1725C21.8708 21.3425 22.1014 21.438 22.3418 21.438C24.0237 21.4399 25.6363 22.1088 26.8257 23.2982C28.015 24.4875 28.6839 26.1 28.6858 27.782C28.6852 28.0221 28.5896 28.2523 28.4198 28.4221C28.25 28.5918 28.0199 28.6875 27.7798 28.688H4.21775C3.97763 28.6875 3.74753 28.5918 3.57774 28.4221C3.40794 28.2523 3.31227 28.0221 3.31174 27.782C3.31386 26.1001 3.98295 24.4877 5.17222 23.2985C6.36149 22.1092 7.97386 21.4401 9.65574 21.438C9.89602 21.438 10.1265 21.3425 10.2964 21.1726C10.4663 21.0027 10.5617 20.7723 10.5617 20.532C10.5617 20.2917 10.4663 20.0613 10.2964 19.8914C10.1265 19.7215 9.89602 19.626 9.65574 19.626C7.49319 19.6279 5.41979 20.4875 3.89036 22.0164C2.36092 23.5453 1.50043 25.6185 1.49778 27.781C1.49857 28.5019 1.78528 29.193 2.29502 29.7027C2.80476 30.2125 3.49589 30.4992 4.21677 30.5H27.7798C28.5005 30.4989 29.1914 30.2121 29.7009 29.7024C30.2104 29.1927 30.497 28.5017 30.4978 27.781C30.4951 25.6187 29.635 23.5457 28.1061 22.0168C26.5771 20.4878 24.5041 19.6276 22.3418 19.625Z" fill="white"/>
</svg>
